<svg xmlns="http://www.w3.org/2000/svg" viewBox="0 0 354.42 359.03"><defs><style>.cls-1{fill:#45cf45;}</style></defs><title>home_btn_1</title><g id="Layer_2" data-name="Layer 2"><g id="Layer_3" data-name="Layer 3"><path class="cls-1" d="M163,5.11,6.46,134c-12.77,10.51-5.34,31.24,11.2,31.24H336.75c16.54,0,24-20.73,11.2-31.24L191.44,5.11A22.4,22.4,0,0,0,163,5.11Z"/><path class="cls-1" d="M256.84,79.6H97.57c-36.93,0-66.87,28.55-66.87,63.77V336.49C30.7,348.94,41.29,359,54.34,359h72V234.2c0-17.34,14.74-31.4,32.92-31.4H195.1c18.18,0,32.92,14.06,32.92,31.4V359h72c13.06,0,23.64-10.09,23.64-22.54V143.37C323.71,108.15,293.77,79.6,256.84,79.6Z"/><path class="cls-1" d="M265,4.63h12.72a24.95,24.95,0,0,1,24.95,24.95V160.85a0,0,0,0,1,0,0H240a0,0,0,0,1,0,0V29.58A24.95,24.95,0,0,1,265,4.63Z"/></g></g></svg>